<svg xmlns="http://www.w3.org/2000/svg" width="16" height="16" viewBox="0 0 24 24">
  <path fill="#fff" d="M5.625 1.5C4.58947 1.5 3.75 2.33947 3.75 3.375v17.25c0 1.0355.83947 1.875 1.875 1.875h12.75c1.0355 0 1.875-.8395 1.875-1.875V12.75c0-2.0711-1.6789-3.75-3.75-3.75H14.625c-1.0355 0-1.875-.83947-1.875-1.875V5.25c0-2.07107-1.6789-3.75-3.75-3.75H5.625zm1.875 13.5c0-.4142.3358-.75.75-.75h7.5c.4142 0 .75.3358.75.75s-.3358.75-.75.75h-7.5a.75.75 0 01-.75-.75zm.75 2.25a.75.75 0 000 1.5h3.75a.75.75 0 000-1.5H8.25z"/>
  <path fill="#fff" d="M12.9712 1.8159c.7968.92058 1.2788 2.12105 1.2788 3.4341V7.125c0 .2071.1679.375.375.375H16.5c1.3131 0 2.5135.48204 3.4341 1.27881-1.8879-3.39893-4.564-6.07504-7.9629-6.96291z"/>
</svg>
