<svg role="img" xmlns="http://www.w3.org/2000/svg" width="16" height="16" viewBox="0 0 16 16" fill="#fff">
  <path d="M8 0C3.58 0 0 3.58 0 8c0 3.54 2.29 6.53 5.47 7.59.4.07.55-.17.55-.38v-1.33c-2.23.48-2.69-1.07-2.69-1.07-.36-.91-.88-1.15-.88-1.15-.72-.49.05-.48.05-.48.79.06 1.2.81 1.2.81.71 1.21 1.87.86 2.33.66.07-.52.28-.86.5-1.06-1.78-.2-3.64-.89-3.64-3.97 0-.88.31-1.6.82-2.16-.08-.2-.36-1.02.08-2.12 0 0 .67-.22 2.2.82A7.55 7.55 0 0 1 8 4.7c.69 0 1.38.09 2.02.27 1.53-1.04 2.2-.82 2.2-.82.44 1.1.16 1.92.08 2.12.51.56.82 1.27.82 2.16 0 3.09-1.87 3.77-3.65 3.97.29.25.54.73.54 1.48v2.19c0 .21.15.46.55.38A8.013 8.013 0 0 0 16 8c0-4.42-3.58-8-8-8z"/>
</svg>
