<svg xmlns="http://www.w3.org/2000/svg" viewBox="0 0 24 24" aria-hidden="true">
  <path fill="currentColor" d="M12 17.3A5.3 5.3 0 1 1 12 6.7a5.3 5.3 0 0 1 0 10.6Zm0-13.8a1 1 0 0 1-1-1V1a1 1 0 1 1 2 0v1.5a1 1 0 0 1-1 1Zm0 20.5a1 1 0 0 1-1-1v-1.5a1 1 0 1 1 2 0V23a1 1 0 0 1-1 1Zm10-11h-1.5a1 1 0 1 1 0-2H22a1 1 0 1 1 0 2ZM3.5 13H2a1 1 0 1 1 0-2h1.5a1 1 0 1 1 0 2Zm14.8-6.3a1 1 0 0 1-.7-1.7l1-1a1 1 0 0 1 1.4 1.4l-1 1a1 1 0 0 1-.7.3ZM4.7 20.3a1 1 0 0 1-.7-1.7l1-1A1 1 0 1 1 6.4 19l-1 1a1 1 0 0 1-.7.3Zm14.6 0a1 1 0 0 1-.7-.3l-1-1a1 1 0 0 1 1.4-1.4l1 1a1 1 0 0 1-.7 1.7ZM5.7 6.7a1 1 0 0 1-.7-.3l-1-1A1 1 0 1 1 5.4 4l1 1a1 1 0 0 1-.7 1.7Z"/>
</svg>
