<svg xmlns="http://www.w3.org/2000/svg" width="16" height="16" viewBox="0 0 24 24">
  <path fill="#fff" d="M19.9016 4.09835c-1.4644-1.46447-3.8388-1.46447-5.3032 0l-4.5 4.5c-1.46445 1.46445-1.46445 3.83875 0 5.30315.3109.3108.6615.5548 1.0347.7332.3738.1785.532.6262.3535.9999-.1786.3738-.6263.5321-.9999.3535-.5248-.2507-1.0159-.593-1.4488-1.026-.4662-.4662-.7858-1.0225-1.026-1.4488-2.05025-2.05025-2.05025-5.37437 0-7.42462l4.5-4.5c2.05025-2.05025 5.37445-2.05025 7.4247 0 2.0503 2.05025 2.0503 5.37437 0 7.42462l-1.7569 1.75695c-.2929.2929-.7677.2929-1.0606 0s-.2929-.7677 0-1.0606l1.7569-1.75695c1.4644-1.46447 1.4644-3.83883 0-5.3033zm-7.3881 4.26678c.1785-.37375.6262-.532 1-.35346.5248.25069 1.0159.59302 1.4488 1.026c2.0503 2.05025 2.0503 5.37437 0 7.42462l-4.5 4.5c-2.05025 2.05025-5.37447 2.05025-7.42472 0-2.05025-2.05025-2.05025-5.37437 0-7.42462l1.75697-1.75695c.29289-.29289.76777-.29289 1.06066 0 .29289.29289.29289.76777 0 1.06066L3.09835 13.5984c-1.46445 1.46445-1.46445 3.83875 0 5.30315 1.46445 1.46447 3.83867 1.46447 5.30297 0l4.5-4.5c1.4644-1.46445 1.4644-3.83875 0-5.30315-.3109-.3108-.6615-.55475-1.0347-.73325-.3738-.17853-.532-.6262-.3535-.99995z"/>
</svg>
